<mxfile host="app.diagrams.net" modified="2024-09-13T08:13:10.820Z" agent="Mozilla/5.0 (Windows NT 10.0; Win64; x64) AppleWebKit/537.36 (KHTML, like Gecko) Chrome/127.0.0.0 Safari/537.36 Edg/127.0.0.0" etag="t9UF-KWDQnzC3bvdRfBT" version="24.7.0" type="onedrive">
  <diagram name="Page-1" id="NaR8Q-iFCJTcQ6JgrNE6">
    <mxGraphModel grid="1" page="1" gridSize="10" guides="1" tooltips="1" connect="1" arrows="1" fold="1" pageScale="1" pageWidth="850" pageHeight="1100" math="0" shadow="0">
      <root>
        <mxCell id="0" />
        <mxCell id="1" parent="0" />
        <mxCell id="hNDsT5IqlAKbwNWZR4wD-1" value="User in Manila" style="shape=umlLifeline;perimeter=lifelinePerimeter;whiteSpace=wrap;container=1;dropTarget=0;collapsible=0;recursiveResize=0;outlineConnect=0;portConstraint=eastwest;newEdgeStyle={&quot;edgeStyle&quot;:&quot;elbowEdgeStyle&quot;,&quot;elbow&quot;:&quot;vertical&quot;,&quot;curved&quot;:0,&quot;rounded&quot;:0};size=65;" vertex="1" parent="1">
          <mxGeometry x="20" y="20" width="150" height="836" as="geometry" />
        </mxCell>
        <mxCell id="hNDsT5IqlAKbwNWZR4wD-2" value="Internet" style="shape=umlLifeline;perimeter=lifelinePerimeter;whiteSpace=wrap;container=1;dropTarget=0;collapsible=0;recursiveResize=0;outlineConnect=0;portConstraint=eastwest;newEdgeStyle={&quot;edgeStyle&quot;:&quot;elbowEdgeStyle&quot;,&quot;elbow&quot;:&quot;vertical&quot;,&quot;curved&quot;:0,&quot;rounded&quot;:0};size=65;" vertex="1" parent="1">
          <mxGeometry x="306" y="20" width="150" height="836" as="geometry" />
        </mxCell>
        <mxCell id="hNDsT5IqlAKbwNWZR4wD-3" value="AWS Authentication Gateway" style="shape=umlLifeline;perimeter=lifelinePerimeter;whiteSpace=wrap;container=1;dropTarget=0;collapsible=0;recursiveResize=0;outlineConnect=0;portConstraint=eastwest;newEdgeStyle={&quot;edgeStyle&quot;:&quot;elbowEdgeStyle&quot;,&quot;elbow&quot;:&quot;vertical&quot;,&quot;curved&quot;:0,&quot;rounded&quot;:0};size=65;" vertex="1" parent="1">
          <mxGeometry x="506" y="20" width="227" height="836" as="geometry" />
        </mxCell>
        <mxCell id="hNDsT5IqlAKbwNWZR4wD-4" value="AWS Streaming Gateway" style="shape=umlLifeline;perimeter=lifelinePerimeter;whiteSpace=wrap;container=1;dropTarget=0;collapsible=0;recursiveResize=0;outlineConnect=0;portConstraint=eastwest;newEdgeStyle={&quot;edgeStyle&quot;:&quot;elbowEdgeStyle&quot;,&quot;elbow&quot;:&quot;vertical&quot;,&quot;curved&quot;:0,&quot;rounded&quot;:0};size=65;" vertex="1" parent="1">
          <mxGeometry x="783" y="20" width="195" height="836" as="geometry" />
        </mxCell>
        <mxCell id="hNDsT5IqlAKbwNWZR4wD-5" value="WorkSpace in Singapore" style="shape=umlLifeline;perimeter=lifelinePerimeter;whiteSpace=wrap;container=1;dropTarget=0;collapsible=0;recursiveResize=0;outlineConnect=0;portConstraint=eastwest;newEdgeStyle={&quot;edgeStyle&quot;:&quot;elbowEdgeStyle&quot;,&quot;elbow&quot;:&quot;vertical&quot;,&quot;curved&quot;:0,&quot;rounded&quot;:0};size=65;" vertex="1" parent="1">
          <mxGeometry x="1028" y="20" width="193" height="836" as="geometry" />
        </mxCell>
        <mxCell id="hNDsT5IqlAKbwNWZR4wD-6" value="Customer VPC" style="shape=umlLifeline;perimeter=lifelinePerimeter;whiteSpace=wrap;container=1;dropTarget=0;collapsible=0;recursiveResize=0;outlineConnect=0;portConstraint=eastwest;newEdgeStyle={&quot;edgeStyle&quot;:&quot;elbowEdgeStyle&quot;,&quot;elbow&quot;:&quot;vertical&quot;,&quot;curved&quot;:0,&quot;rounded&quot;:0};size=65;" vertex="1" parent="1">
          <mxGeometry x="1289" y="20" width="150" height="836" as="geometry" />
        </mxCell>
        <mxCell id="hNDsT5IqlAKbwNWZR4wD-7" value="AWS Directory Service" style="shape=umlLifeline;perimeter=lifelinePerimeter;whiteSpace=wrap;container=1;dropTarget=0;collapsible=0;recursiveResize=0;outlineConnect=0;portConstraint=eastwest;newEdgeStyle={&quot;edgeStyle&quot;:&quot;elbowEdgeStyle&quot;,&quot;elbow&quot;:&quot;vertical&quot;,&quot;curved&quot;:0,&quot;rounded&quot;:0};size=65;" vertex="1" parent="1">
          <mxGeometry x="1489" y="20" width="177" height="836" as="geometry" />
        </mxCell>
        <mxCell id="hNDsT5IqlAKbwNWZR4wD-8" value="Connect (Port 443 HTTPS)" style="verticalAlign=bottom;edgeStyle=elbowEdgeStyle;elbow=vertical;curved=0;rounded=0;endArrow=block;" edge="1" parent="1" source="hNDsT5IqlAKbwNWZR4wD-1" target="hNDsT5IqlAKbwNWZR4wD-2">
          <mxGeometry relative="1" as="geometry">
            <Array as="points">
              <mxPoint x="247" y="127" />
            </Array>
          </mxGeometry>
        </mxCell>
        <mxCell id="hNDsT5IqlAKbwNWZR4wD-9" value="Authentication Request" style="verticalAlign=bottom;edgeStyle=elbowEdgeStyle;elbow=vertical;curved=0;rounded=0;endArrow=block;" edge="1" parent="1" source="hNDsT5IqlAKbwNWZR4wD-2" target="hNDsT5IqlAKbwNWZR4wD-3">
          <mxGeometry relative="1" as="geometry">
            <Array as="points">
              <mxPoint x="509" y="179" />
            </Array>
          </mxGeometry>
        </mxCell>
        <mxCell id="hNDsT5IqlAKbwNWZR4wD-10" value="Validate Credentials" style="verticalAlign=bottom;edgeStyle=elbowEdgeStyle;elbow=vertical;curved=0;rounded=0;endArrow=block;" edge="1" parent="1" source="hNDsT5IqlAKbwNWZR4wD-3" target="hNDsT5IqlAKbwNWZR4wD-7">
          <mxGeometry relative="1" as="geometry">
            <Array as="points">
              <mxPoint x="1107" y="231" />
            </Array>
          </mxGeometry>
        </mxCell>
        <mxCell id="hNDsT5IqlAKbwNWZR4wD-11" value="Authentication Response" style="verticalAlign=bottom;edgeStyle=elbowEdgeStyle;elbow=vertical;curved=0;rounded=0;dashed=1;dashPattern=2 3;endArrow=block;" edge="1" parent="1" source="hNDsT5IqlAKbwNWZR4wD-7" target="hNDsT5IqlAKbwNWZR4wD-3">
          <mxGeometry relative="1" as="geometry">
            <Array as="points">
              <mxPoint x="1110" y="283" />
            </Array>
          </mxGeometry>
        </mxCell>
        <mxCell id="hNDsT5IqlAKbwNWZR4wD-12" value="Authentication Result" style="verticalAlign=bottom;edgeStyle=elbowEdgeStyle;elbow=vertical;curved=0;rounded=0;dashed=1;dashPattern=2 3;endArrow=block;" edge="1" parent="1" source="hNDsT5IqlAKbwNWZR4wD-3" target="hNDsT5IqlAKbwNWZR4wD-1">
          <mxGeometry relative="1" as="geometry">
            <Array as="points">
              <mxPoint x="369" y="335" />
            </Array>
          </mxGeometry>
        </mxCell>
        <mxCell id="hNDsT5IqlAKbwNWZR4wD-13" value="Stream (Port 4172 PCoIP/WSP)" style="verticalAlign=bottom;edgeStyle=elbowEdgeStyle;elbow=vertical;curved=0;rounded=0;endArrow=block;" edge="1" parent="1" source="hNDsT5IqlAKbwNWZR4wD-1" target="hNDsT5IqlAKbwNWZR4wD-2">
          <mxGeometry relative="1" as="geometry">
            <Array as="points">
              <mxPoint x="247" y="387" />
            </Array>
          </mxGeometry>
        </mxCell>
        <mxCell id="hNDsT5IqlAKbwNWZR4wD-14" value="Streaming Traffic" style="verticalAlign=bottom;edgeStyle=elbowEdgeStyle;elbow=vertical;curved=0;rounded=0;endArrow=block;" edge="1" parent="1" source="hNDsT5IqlAKbwNWZR4wD-2" target="hNDsT5IqlAKbwNWZR4wD-4">
          <mxGeometry relative="1" as="geometry">
            <Array as="points">
              <mxPoint x="639" y="439" />
            </Array>
          </mxGeometry>
        </mxCell>
        <mxCell id="hNDsT5IqlAKbwNWZR4wD-15" value="Pixel Streaming (eth0)" style="verticalAlign=bottom;edgeStyle=elbowEdgeStyle;elbow=vertical;curved=0;rounded=0;endArrow=block;" edge="1" parent="1" source="hNDsT5IqlAKbwNWZR4wD-4" target="hNDsT5IqlAKbwNWZR4wD-5">
          <mxGeometry relative="1" as="geometry">
            <Array as="points">
              <mxPoint x="1011" y="491" />
            </Array>
          </mxGeometry>
        </mxCell>
        <mxCell id="hNDsT5IqlAKbwNWZR4wD-16" value="Access Resources (eth1)" style="verticalAlign=bottom;edgeStyle=elbowEdgeStyle;elbow=vertical;curved=0;rounded=0;endArrow=block;" edge="1" parent="1" source="hNDsT5IqlAKbwNWZR4wD-5" target="hNDsT5IqlAKbwNWZR4wD-6">
          <mxGeometry relative="1" as="geometry">
            <Array as="points">
              <mxPoint x="1253" y="543" />
            </Array>
          </mxGeometry>
        </mxCell>
        <mxCell id="hNDsT5IqlAKbwNWZR4wD-17" value="Resource Response" style="verticalAlign=bottom;edgeStyle=elbowEdgeStyle;elbow=vertical;curved=0;rounded=0;dashed=1;dashPattern=2 3;endArrow=block;" edge="1" parent="1" source="hNDsT5IqlAKbwNWZR4wD-6" target="hNDsT5IqlAKbwNWZR4wD-5">
          <mxGeometry relative="1" as="geometry">
            <Array as="points">
              <mxPoint x="1256" y="595" />
            </Array>
          </mxGeometry>
        </mxCell>
        <mxCell id="hNDsT5IqlAKbwNWZR4wD-18" value="Updated Display" style="verticalAlign=bottom;edgeStyle=elbowEdgeStyle;elbow=vertical;curved=0;rounded=0;endArrow=block;" edge="1" parent="1" source="hNDsT5IqlAKbwNWZR4wD-5" target="hNDsT5IqlAKbwNWZR4wD-4">
          <mxGeometry relative="1" as="geometry">
            <Array as="points">
              <mxPoint x="1014" y="647" />
            </Array>
          </mxGeometry>
        </mxCell>
        <mxCell id="hNDsT5IqlAKbwNWZR4wD-19" value="Streaming Traffic" style="verticalAlign=bottom;edgeStyle=elbowEdgeStyle;elbow=vertical;curved=0;rounded=0;endArrow=block;" edge="1" parent="1" source="hNDsT5IqlAKbwNWZR4wD-4" target="hNDsT5IqlAKbwNWZR4wD-2">
          <mxGeometry relative="1" as="geometry">
            <Array as="points">
              <mxPoint x="642" y="699" />
            </Array>
          </mxGeometry>
        </mxCell>
        <mxCell id="hNDsT5IqlAKbwNWZR4wD-20" value="Updated Display" style="verticalAlign=bottom;edgeStyle=elbowEdgeStyle;elbow=vertical;curved=0;rounded=0;endArrow=block;" edge="1" parent="1" source="hNDsT5IqlAKbwNWZR4wD-2" target="hNDsT5IqlAKbwNWZR4wD-1">
          <mxGeometry relative="1" as="geometry">
            <Array as="points">
              <mxPoint x="250" y="751" />
            </Array>
          </mxGeometry>
        </mxCell>
        <mxCell id="hNDsT5IqlAKbwNWZR4wD-21" value="User in Manila" style="whiteSpace=wrap;strokeWidth=2;" vertex="1" parent="1">
          <mxGeometry x="20" y="882" width="117" height="34" as="geometry" />
        </mxCell>
        <mxCell id="hNDsT5IqlAKbwNWZR4wD-22" value="Internet" style="whiteSpace=wrap;strokeWidth=2;" vertex="1" parent="1">
          <mxGeometry x="265" y="882" width="74" height="34" as="geometry" />
        </mxCell>
        <mxCell id="hNDsT5IqlAKbwNWZR4wD-23" value="AWS WorkSpaces Service" style="whiteSpace=wrap;strokeWidth=2;" vertex="1" parent="1">
          <mxGeometry x="500" y="882" width="191" height="34" as="geometry" />
        </mxCell>
        <mxCell id="hNDsT5IqlAKbwNWZR4wD-24" value="WorkSpace in Singapore" style="whiteSpace=wrap;strokeWidth=2;" vertex="1" parent="1">
          <mxGeometry x="869" y="882" width="187" height="34" as="geometry" />
        </mxCell>
        <mxCell id="hNDsT5IqlAKbwNWZR4wD-25" value="Customer VPC" style="whiteSpace=wrap;strokeWidth=2;" vertex="1" parent="1">
          <mxGeometry x="1247" y="882" width="116" height="34" as="geometry" />
        </mxCell>
        <mxCell id="hNDsT5IqlAKbwNWZR4wD-26" value="1. Connect" style="curved=1;startArrow=none;endArrow=block;exitX=1;exitY=0.23;entryX=0;entryY=0.29;rounded=0;" edge="1" parent="1" source="hNDsT5IqlAKbwNWZR4wD-21" target="hNDsT5IqlAKbwNWZR4wD-22">
          <mxGeometry relative="1" as="geometry">
            <Array as="points">
              <mxPoint x="201" y="880" />
            </Array>
          </mxGeometry>
        </mxCell>
        <mxCell id="hNDsT5IqlAKbwNWZR4wD-27" value="2. Authenticate" style="curved=1;startArrow=none;endArrow=block;exitX=1;exitY=0.32;entryX=0;entryY=0.19;rounded=0;" edge="1" parent="1" source="hNDsT5IqlAKbwNWZR4wD-22" target="hNDsT5IqlAKbwNWZR4wD-23">
          <mxGeometry relative="1" as="geometry">
            <Array as="points">
              <mxPoint x="420" y="880" />
            </Array>
          </mxGeometry>
        </mxCell>
        <mxCell id="hNDsT5IqlAKbwNWZR4wD-28" value="3. Stream" style="curved=1;startArrow=none;endArrow=block;exitX=1;exitY=0.2;entryX=0;entryY=0.21;rounded=0;" edge="1" parent="1" source="hNDsT5IqlAKbwNWZR4wD-23" target="hNDsT5IqlAKbwNWZR4wD-24">
          <mxGeometry relative="1" as="geometry">
            <Array as="points">
              <mxPoint x="780" y="880" />
            </Array>
          </mxGeometry>
        </mxCell>
        <mxCell id="hNDsT5IqlAKbwNWZR4wD-29" value="4. Access Resources" style="curved=1;startArrow=none;endArrow=block;exitX=1;exitY=0.22;entryX=0;entryY=0.28;rounded=0;" edge="1" parent="1" source="hNDsT5IqlAKbwNWZR4wD-24" target="hNDsT5IqlAKbwNWZR4wD-25">
          <mxGeometry relative="1" as="geometry">
            <Array as="points">
              <mxPoint x="1151" y="880" />
            </Array>
          </mxGeometry>
        </mxCell>
        <mxCell id="hNDsT5IqlAKbwNWZR4wD-30" value="5. Return Data" style="curved=1;startArrow=none;endArrow=block;exitX=0;exitY=0.72;entryX=1;entryY=0.78;rounded=0;" edge="1" parent="1" source="hNDsT5IqlAKbwNWZR4wD-25" target="hNDsT5IqlAKbwNWZR4wD-24">
          <mxGeometry relative="1" as="geometry">
            <Array as="points">
              <mxPoint x="1151" y="919" />
            </Array>
          </mxGeometry>
        </mxCell>
        <mxCell id="hNDsT5IqlAKbwNWZR4wD-31" value="6. Update Display" style="curved=1;startArrow=none;endArrow=block;exitX=0;exitY=0.79;entryX=1;entryY=0.8;rounded=0;" edge="1" parent="1" source="hNDsT5IqlAKbwNWZR4wD-24" target="hNDsT5IqlAKbwNWZR4wD-23">
          <mxGeometry relative="1" as="geometry">
            <Array as="points">
              <mxPoint x="780" y="919" />
            </Array>
          </mxGeometry>
        </mxCell>
        <mxCell id="hNDsT5IqlAKbwNWZR4wD-32" value="7. Stream Back" style="curved=1;startArrow=none;endArrow=block;exitX=0;exitY=0.81;entryX=1;entryY=0.68;rounded=0;" edge="1" parent="1" source="hNDsT5IqlAKbwNWZR4wD-23" target="hNDsT5IqlAKbwNWZR4wD-22">
          <mxGeometry relative="1" as="geometry">
            <Array as="points">
              <mxPoint x="420" y="919" />
            </Array>
          </mxGeometry>
        </mxCell>
        <mxCell id="hNDsT5IqlAKbwNWZR4wD-33" value="8. Display" style="curved=1;startArrow=none;endArrow=block;exitX=0;exitY=0.71;entryX=1;entryY=0.77;rounded=0;" edge="1" parent="1" source="hNDsT5IqlAKbwNWZR4wD-22" target="hNDsT5IqlAKbwNWZR4wD-21">
          <mxGeometry relative="1" as="geometry">
            <Array as="points">
              <mxPoint x="201" y="919" />
            </Array>
          </mxGeometry>
        </mxCell>
        <mxCell id="hNDsT5IqlAKbwNWZR4wD-34" value="AWS Cloud" style="whiteSpace=wrap;strokeWidth=2;verticalAlign=top;" vertex="1" parent="1">
          <mxGeometry x="20" y="950" width="845" height="393" as="geometry" />
        </mxCell>
        <mxCell id="hNDsT5IqlAKbwNWZR4wD-35" value="AWS Authentication Gateway" style="whiteSpace=wrap;strokeWidth=2;" vertex="1" parent="1">
          <mxGeometry x="606" y="1181" width="224" height="34" as="geometry" />
        </mxCell>
        <mxCell id="hNDsT5IqlAKbwNWZR4wD-36" value="AWS Directory Service" style="whiteSpace=wrap;strokeWidth=2;" vertex="1" parent="1">
          <mxGeometry x="632" y="1284" width="173" height="34" as="geometry" />
        </mxCell>
        <mxCell id="hNDsT5IqlAKbwNWZR4wD-37" value="AWS Streaming Gateway" style="whiteSpace=wrap;strokeWidth=2;" vertex="1" parent="1">
          <mxGeometry x="334" y="975" width="191" height="34" as="geometry" />
        </mxCell>
        <mxCell id="hNDsT5IqlAKbwNWZR4wD-38" value="WorkSpace in Singapore" style="whiteSpace=wrap;strokeWidth=2;" vertex="1" parent="1">
          <mxGeometry x="239" y="1078" width="187" height="34" as="geometry" />
        </mxCell>
        <mxCell id="hNDsT5IqlAKbwNWZR4wD-39" value="Customer VPC" style="whiteSpace=wrap;strokeWidth=2;" vertex="1" parent="1">
          <mxGeometry x="275" y="1181" width="116" height="34" as="geometry" />
        </mxCell>
        <mxCell id="hNDsT5IqlAKbwNWZR4wD-40" value="User in Manila" style="whiteSpace=wrap;strokeWidth=2;" vertex="1" parent="1">
          <mxGeometry x="1004" y="1181" width="117" height="34" as="geometry" />
        </mxCell>
        <mxCell id="hNDsT5IqlAKbwNWZR4wD-41" value="Internet" style="whiteSpace=wrap;strokeWidth=2;" vertex="1" parent="1">
          <mxGeometry x="945" y="1078" width="74" height="34" as="geometry" />
        </mxCell>
        <mxCell id="hNDsT5IqlAKbwNWZR4wD-42" value="1. Auth: 443" style="curved=1;startArrow=none;endArrow=block;exitX=0.72;exitY=0;entryX=1;entryY=0.85;rounded=0;" edge="1" parent="1" source="hNDsT5IqlAKbwNWZR4wD-40" target="hNDsT5IqlAKbwNWZR4wD-41">
          <mxGeometry relative="1" as="geometry">
            <Array as="points">
              <mxPoint x="1141" y="1147" />
            </Array>
          </mxGeometry>
        </mxCell>
        <mxCell id="hNDsT5IqlAKbwNWZR4wD-43" value="2. Auth: 443" style="curved=1;startArrow=none;endArrow=block;exitX=0.01;exitY=0.71;entryX=0.5;entryY=0;rounded=0;" edge="1" parent="1" source="hNDsT5IqlAKbwNWZR4wD-41" target="hNDsT5IqlAKbwNWZR4wD-35">
          <mxGeometry relative="1" as="geometry">
            <Array as="points">
              <mxPoint x="718" y="1147" />
            </Array>
          </mxGeometry>
        </mxCell>
        <mxCell id="hNDsT5IqlAKbwNWZR4wD-44" value="3. Auth: 389/636" style="curved=1;startArrow=none;endArrow=block;exitX=0.5;exitY=1;entryX=0.5;entryY=0;rounded=0;" edge="1" parent="1" source="hNDsT5IqlAKbwNWZR4wD-35" target="hNDsT5IqlAKbwNWZR4wD-36">
          <mxGeometry relative="1" as="geometry">
            <Array as="points" />
          </mxGeometry>
        </mxCell>
        <mxCell id="hNDsT5IqlAKbwNWZR4wD-45" value="4. Stream: 4172 TCP/UDP" style="curved=1;startArrow=none;endArrow=block;exitX=0.01;exitY=0.28;entryX=1;entryY=0.99;rounded=0;" edge="1" parent="1" source="hNDsT5IqlAKbwNWZR4wD-41" target="hNDsT5IqlAKbwNWZR4wD-37">
          <mxGeometry relative="1" as="geometry">
            <Array as="points">
              <mxPoint x="723" y="1044" />
            </Array>
          </mxGeometry>
        </mxCell>
        <mxCell id="hNDsT5IqlAKbwNWZR4wD-46" value="5. Pixel: 4172 TCP/UDP" style="curved=1;startArrow=none;endArrow=block;exitX=0;exitY=0.99;entryX=0.15;entryY=0;rounded=0;" edge="1" parent="1" source="hNDsT5IqlAKbwNWZR4wD-37" target="hNDsT5IqlAKbwNWZR4wD-38">
          <mxGeometry relative="1" as="geometry">
            <Array as="points">
              <mxPoint x="136" y="1044" />
            </Array>
          </mxGeometry>
        </mxCell>
        <mxCell id="hNDsT5IqlAKbwNWZR4wD-47" value="6. Resources: Various" style="curved=1;startArrow=none;endArrow=block;exitX=0.15;exitY=1;entryX=0;entryY=0.06;rounded=0;" edge="1" parent="1" source="hNDsT5IqlAKbwNWZR4wD-38" target="hNDsT5IqlAKbwNWZR4wD-39">
          <mxGeometry x="-0.0034" relative="1" as="geometry">
            <Array as="points">
              <mxPoint x="132" y="1147" />
            </Array>
            <mxPoint as="offset" />
          </mxGeometry>
        </mxCell>
        <mxCell id="hNDsT5IqlAKbwNWZR4wD-48" value="7. Data: Various" style="curved=1;startArrow=none;endArrow=block;exitX=1;exitY=0.09;entryX=0.88;entryY=1;rounded=0;" edge="1" parent="1" source="hNDsT5IqlAKbwNWZR4wD-39" target="hNDsT5IqlAKbwNWZR4wD-38">
          <mxGeometry relative="1" as="geometry">
            <Array as="points">
              <mxPoint x="548" y="1147" />
            </Array>
          </mxGeometry>
        </mxCell>
        <mxCell id="hNDsT5IqlAKbwNWZR4wD-49" value="8. Pixel: 4172 TCP/UDP" style="curved=1;startArrow=none;endArrow=block;exitX=0.84;exitY=0;entryX=0.67;entryY=1;rounded=0;" edge="1" parent="1" source="hNDsT5IqlAKbwNWZR4wD-38" target="hNDsT5IqlAKbwNWZR4wD-37">
          <mxGeometry relative="1" as="geometry">
            <Array as="points">
              <mxPoint x="527" y="1044" />
            </Array>
          </mxGeometry>
        </mxCell>
        <mxCell id="hNDsT5IqlAKbwNWZR4wD-50" value="9. Stream: 4172 TCP/UDP" style="curved=1;startArrow=none;endArrow=block;exitX=0.33;exitY=1;entryX=0.01;entryY=0.41;rounded=0;" edge="1" parent="1" source="hNDsT5IqlAKbwNWZR4wD-37" target="hNDsT5IqlAKbwNWZR4wD-41">
          <mxGeometry relative="1" as="geometry">
            <Array as="points">
              <mxPoint x="332" y="1044" />
            </Array>
          </mxGeometry>
        </mxCell>
        <mxCell id="hNDsT5IqlAKbwNWZR4wD-51" value="10. Display: 4172 TCP/UDP" style="curved=1;startArrow=none;endArrow=block;exitX=0.5;exitY=1;entryX=0.27;entryY=0;rounded=0;" edge="1" parent="1" source="hNDsT5IqlAKbwNWZR4wD-41" target="hNDsT5IqlAKbwNWZR4wD-40">
          <mxGeometry relative="1" as="geometry">
            <Array as="points">
              <mxPoint x="981" y="1147" />
            </Array>
          </mxGeometry>
        </mxCell>
      </root>
    </mxGraphModel>
  </diagram>
</mxfile>
